<?xml version="1.0" encoding="UTF-8"?>
<!DOCTYPE svg PUBLIC "-//W3C//DTD SVG 1.1//EN" "http://www.w3.org/Graphics/SVG/1.1/DTD/svg11.dtd">
<!-- Creator: CorelDRAW X7 -->
<svg xmlns="http://www.w3.org/2000/svg" xml:space="preserve" width="21.6746mm" height="5.4186mm" version="1.1" style="shape-rendering:geometricPrecision; text-rendering:geometricPrecision; image-rendering:optimizeQuality; fill-rule:evenodd; clip-rule:evenodd"
viewBox="0 0 2167 542"
 xmlns:xlink="http://www.w3.org/1999/xlink">
 <defs>
  <style type="text/css">
   <![CDATA[
    .fil3 {fill:#FEFEFE}
    .fil0 {fill:#75838A}
    .fil1 {fill:#4A6878}
    .fil2 {fill:#FEFEFE;fill-rule:nonzero}
    .fil4 {fill:#75838A;fill-rule:nonzero}
   ]]>
  </style>
 </defs>
 <g id="Layer_x0020_1">
  <metadata id="CorelCorpID_0Corel-Layer"/>
  <g id="_215354120">
   <g>
    <path class="fil0" d="M52 0l442 0c27,0 50,23 50,50l0 442c0,27 -23,50 -50,50l-442 0c-27,0 -50,-23 -50,-50l0 -442c0,-27 23,-50 50,-50z"/>
    <path class="fil1" d="M544 213l0 279c0,27 -23,50 -50,50l-371 0 -45 -79c-10,-10 -16,-25 -16,-41l0 -129 25 0 -25 -44 0 -129c0,-17 7,-32 17,-42 11,-11 26,-18 43,-18l128 0 119 210 2 1 68 121 0 -33 -144 -254 0 -45 129 0c16,0 31,7 42,18 7,6 12,15 15,24l63 111zm-120 -108l0 0c0,0 0,0 0,0zm0 0l1 0c-1,0 -1,0 -1,0zm1 0l0 0c0,0 0,0 0,0zm0 0l0 0c0,0 0,0 0,0zm0 0l1 0c0,0 -1,0 -1,0zm1 0l0 0c0,0 0,0 0,0zm0 0l0 0c0,0 0,0 0,0zm0 0l1 0c0,0 0,0 -1,0zm1 0l0 0c0,0 0,0 0,0zm0 0l1 0c-1,0 -1,0 -1,0zm1 0l0 0c0,0 0,0 0,0zm0 0l0 0c0,0 0,0 0,0zm0 0l1 0c0,0 -1,0 -1,0zm1 0l0 1c0,0 0,-1 0,-1zm0 1l0 0c0,0 0,0 0,0zm0 0l1 0c0,0 0,0 -1,0zm1 0l0 0c0,0 0,0 0,0zm0 0l0 0c0,0 0,0 0,0zm0 0l1 0c0,0 0,0 -1,0zm1 0l0 0c0,0 0,0 0,0zm0 0l0 1c0,0 0,0 0,-1zm0 1l1 0c0,0 0,0 -1,0zm1 0l0 0c0,0 0,0 0,0zm0 0l0 0c0,0 0,0 0,0zm0 0l1 0c0,0 -1,0 -1,0zm1 0l0 1c0,0 0,0 0,-1zm0 1l0 0c0,0 0,0 0,0zm0 0l1 0c-1,0 -1,0 -1,0zm1 0l0 0c0,0 0,0 0,0zm0 0l0 1c0,0 0,-1 0,-1zm0 1l0 0c0,0 0,0 0,0zm0 0l1 0c0,0 -1,0 -1,0zm1 0l0 0c0,0 0,0 0,0zm0 0l0 1c0,0 0,0 0,-1zm0 1l0 0c0,0 0,0 0,0zm0 0l1 0c0,0 -1,0 -1,0zm1 0l0 1c0,-1 0,-1 0,-1zm0 1l0 0c0,0 0,0 0,0zm0 0l0 0c0,0 0,0 0,0zm0 0l1 0c-1,0 -1,0 -1,0zm1 0l0 1c0,0 0,0 0,-1zm0 1l0 0c0,0 0,0 0,0zm0 0l0 0c0,0 0,0 0,0zm0 0l0 1c0,0 0,-1 0,-1zm0 1l0 0c0,0 0,0 0,0zm0 0l1 0c0,0 0,0 -1,0zm1 0l0 1c0,0 0,-1 0,-1zm0 1l0 0c0,0 0,0 0,0zm0 0l0 0c0,0 0,0 0,0zm0 0l0 1c0,0 0,0 0,-1zm0 1l0 0c0,0 0,0 0,0zm-328 317l0 0c0,0 0,0 0,0zm0 0l0 -1c0,0 0,1 0,1zm0 -1l0 0c0,0 0,0 0,0zm0 0l-1 0c0,0 1,0 1,0zm-1 0l0 -1c0,1 0,1 0,1zm0 -1l0 0c0,0 0,0 0,0zm0 0l0 0c0,0 0,0 0,0zm0 0l0 -1c0,1 0,1 0,1zm0 -1l-1 0c0,0 1,0 1,0zm-1 0l0 0c0,0 0,0 0,0zm0 0l0 0c0,0 0,0 0,0zm0 0l0 -1c0,0 0,0 0,1zm0 -1l0 0c0,0 0,0 0,0zm0 0l0 -1c0,1 0,1 0,1zm0 -1l-1 0c1,0 1,0 1,0zm-1 0l0 0c0,0 0,0 0,0zm0 0l0 -1c0,1 0,1 0,1zm0 -1l0 0c0,0 0,0 0,0zm0 0l0 0c0,0 0,0 0,0zm0 0l0 -1c0,0 0,1 0,1zm0 -1l0 0c0,0 0,0 0,0zm0 0l0 0c0,0 0,0 0,0zm0 0l0 -1c0,0 0,0 0,1zm0 -1l0 0c0,0 0,0 0,0zm0 0l0 -1c0,1 0,1 0,1zm0 -1l0 0c0,0 0,0 0,0zm0 0l0 0c0,0 0,0 0,0zm0 0l0 -1c0,0 0,1 0,1zm0 -1l0 0c0,0 0,0 0,0zm0 -302l0 0c0,0 0,0 0,0zm0 0l0 -1c0,0 0,0 0,1zm0 -1l0 0c0,0 0,0 0,0zm0 0l0 -1c0,1 0,1 0,1zm0 -1l0 0c0,0 0,0 0,0zm0 0l0 0c0,0 0,0 0,0zm0 0l0 -1c0,0 0,1 0,1zm0 -1l0 0c0,0 0,0 0,0zm0 0l0 0c0,0 0,0 0,0zm0 0l0 -1c0,0 0,0 0,1zm0 -1l0 0c0,0 0,0 0,0zm0 0l0 -1c0,1 0,1 0,1zm0 -1l0 0c0,0 0,0 0,0zm0 0l0 0c0,0 0,0 0,0zm0 0l1 -1c0,1 0,1 -1,1zm1 -1l0 0c0,0 0,0 0,0zm0 0l0 0c0,0 0,0 0,0zm0 0l0 -1c0,0 0,1 0,1zm0 -1l0 0c0,0 0,0 0,0zm0 0l0 0c0,0 0,0 0,0zm0 0l1 -1c0,0 -1,1 -1,1zm1 -1l0 0c0,0 0,0 0,0zm0 0l0 0c0,0 0,0 0,0zm0 0l0 -1c0,1 0,1 0,1zm0 -1l0 0c0,0 0,0 0,0zm0 0l1 0c0,0 -1,0 -1,0zm1 0l0 0c0,0 0,0 0,0zm0 0l0 -1c0,0 0,0 0,1zm0 -1l0 0c0,0 0,0 0,0zm0 0l1 0c-1,0 -1,0 -1,0zm1 0l0 -1c0,1 0,1 0,1zm0 -1l0 0c0,0 0,0 0,0zm0 0l0 0c0,0 0,0 0,0zm0 0l1 0c-1,0 -1,0 -1,0zm1 0l0 -1c0,0 0,1 0,1zm0 -1l0 0c0,0 0,0 0,0zm0 0l0 0c0,0 0,0 0,0zm0 0l1 0c0,0 0,0 -1,0zm1 0l0 -1c0,1 0,1 0,1zm0 -1l0 0c0,0 0,0 0,0zm0 0l1 0c0,0 -1,0 -1,0zm1 0l0 0c0,0 0,0 0,0zm0 0l0 0c0,0 0,0 0,0zm0 0l1 -1c-1,1 -1,1 -1,1zm1 -1l0 0c0,0 0,0 0,0zm0 0l0 0c0,0 0,0 0,0zm0 0l1 0c-1,0 -1,0 -1,0zm1 0l0 0c0,0 0,0 0,0zm0 0l0 0c0,0 0,0 0,0zm0 0l1 0c0,0 -1,0 -1,0zm1 0l0 -1c0,0 0,1 0,1zm0 -1l0 0c0,0 0,0 0,0zm0 0l1 0c0,0 -1,0 -1,0zm1 0l0 0c0,0 0,0 0,0zm0 0l0 0c0,0 0,0 0,0zm0 0l1 0c0,0 0,0 -1,0zm1 0l0 0c0,0 0,0 0,0zm0 0l1 0c-1,0 -1,0 -1,0zm1 0l0 0c0,0 0,0 0,0zm0 0l0 0c0,0 0,0 0,0zm0 0l1 0c0,0 -1,0 -1,0zm1 0l0 0c0,0 0,0 0,0zm0 0l0 0c0,0 0,0 0,0zm0 0l1 0c0,0 0,0 -1,0z"/>
    <g>
     <path class="fil2" d="M122 60l128 0 0 45 -128 0c-4,0 -8,1 -11,4 -3,3 -4,7 -4,11l0 129 -45 0 0 -129c0,-17 7,-32 17,-42 11,-11 26,-18 43,-18zm-15 233l0 129c0,4 1,8 4,11 3,3 7,4 11,4l128 0 0 45 -128 0c-17,0 -32,-7 -43,-18 -10,-11 -17,-26 -17,-42l0 -129 45 0zm188 -233l129 0c16,0 31,7 42,18 11,10 18,25 18,42l0 129 -45 0 0 -129c0,-4 -2,-8 -4,-11 -3,-3 -7,-4 -11,-4l-129 0 0 -45zm189 233l0 129c0,16 -7,31 -18,42 -11,11 -26,18 -42,18l-129 0 0 -45 129 0c4,0 8,-1 11,-4 2,-3 4,-7 4,-11l0 -129 45 0z"/>
     <polygon class="fil3" points="371,271 285,321 198,371 198,271 198,171 285,221 "/>
    </g>
   </g>
   <path class="fil4" d="M773 393l-54 0 0 -244 54 -8 0 252zm37 -212c0,-8 3,-15 9,-21 5,-5 12,-8 20,-8 9,0 16,3 21,8 6,6 9,13 9,21 0,9 -3,16 -9,21 -5,6 -12,9 -21,9 -8,0 -15,-3 -20,-9 -6,-6 -9,-13 -9,-21zm57 212l-55 0 0 -154 55 -8 0 162zm93 -35c4,1 7,1 10,2 3,0 5,1 7,1 11,0 19,-5 26,-13 8,-9 11,-20 11,-33 0,-12 -3,-21 -9,-28 -6,-8 -13,-11 -23,-11 -2,0 -5,0 -9,2 -4,1 -8,3 -13,6l0 74zm-54 42l0 -251 54 -8 0 105c7,-4 13,-7 20,-8 6,-2 12,-3 18,-3 21,0 38,7 51,22 13,15 20,35 20,59 0,25 -8,45 -23,61 -16,15 -36,23 -61,23 -4,0 -7,0 -11,0 -4,-1 -9,-1 -14,-2l-19 -5 -35 7zm294 -122c-3,-2 -6,-3 -9,-4 -3,-1 -6,-1 -9,-1 -10,0 -18,4 -25,13 -7,8 -11,19 -11,32 0,12 3,22 9,30 7,8 14,12 23,12 3,0 7,-1 11,-2 3,-1 7,-4 11,-7l0 -73zm54 -137l0 252 -47 7 -2 -11c-8,4 -15,7 -22,9 -8,2 -15,2 -23,2 -21,0 -38,-7 -50,-21 -12,-14 -18,-34 -18,-59 0,-27 7,-48 21,-64 14,-16 33,-24 56,-24 6,0 11,1 16,2 5,1 10,3 15,5l0 -90 54 -8zm196 252l-54 0 0 -88c0,-8 -1,-14 -5,-18 -3,-5 -8,-7 -14,-7 -9,0 -16,3 -21,10 -5,6 -7,15 -7,27l0 76 -54 0 0 -154 50 0 0 26c9,-11 18,-18 27,-23 8,-5 18,-7 28,-7 11,0 21,2 28,7 7,4 14,12 19,22 7,-10 16,-17 25,-22 9,-5 18,-7 29,-7 17,0 30,4 38,14 8,10 12,25 12,45l0 99 -54 0 0 -88c0,-8 -1,-14 -5,-18 -3,-5 -8,-7 -14,-7 -9,0 -16,3 -21,10 -5,6 -7,15 -7,27l0 76zm240 -154l54 0 0 154 -50 7 0 -30c-8,11 -17,18 -26,23 -9,5 -19,7 -30,7 -16,0 -29,-4 -37,-14 -9,-9 -13,-23 -13,-41l0 -106 54 0 0 91c0,8 1,15 5,19 3,4 8,6 14,6 10,0 17,-3 22,-10 5,-6 7,-15 7,-27l0 -79zm93 147l0 -42c14,8 24,14 32,17 7,3 14,5 21,5 5,0 10,-1 13,-4 4,-2 5,-6 5,-10 0,-3 -1,-6 -3,-8 -2,-2 -7,-5 -12,-7l-20 -7c-13,-4 -23,-10 -30,-18 -7,-8 -10,-18 -10,-29 0,-15 6,-28 16,-37 11,-10 26,-15 44,-15 8,0 17,2 26,4 9,2 20,6 31,11l-7 37c-6,-5 -14,-10 -22,-13 -8,-4 -16,-5 -23,-5 -5,0 -9,1 -13,3 -3,3 -5,6 -5,10 0,3 1,6 3,7 2,2 6,4 13,6l18 7c15,5 25,11 31,19 7,7 10,17 10,28 0,17 -6,31 -17,41 -11,10 -26,14 -46,14 -9,0 -18,-1 -27,-3 -9,-2 -19,-6 -28,-11zm146 -205c0,-8 3,-15 8,-21 6,-5 13,-8 21,-8 9,0 15,3 21,8 6,6 9,13 9,21 0,9 -3,16 -9,21 -6,6 -13,9 -21,9 -8,0 -15,-3 -21,-9 -5,-6 -8,-13 -8,-21zm57 212l-55 0 0 -154 55 -8 0 162zm174 -9c-9,6 -18,10 -27,12 -10,3 -19,4 -29,4 -26,0 -47,-8 -63,-23 -17,-15 -25,-35 -25,-59 0,-24 9,-45 27,-61 18,-17 40,-25 67,-25 9,0 19,1 28,3 10,2 19,6 27,10l-6 48c-8,-5 -16,-9 -24,-12 -8,-2 -15,-4 -22,-4 -12,0 -22,4 -30,11 -8,8 -12,17 -12,28 0,12 4,21 11,28 8,7 17,11 30,11 7,0 15,-2 24,-5 8,-4 18,-9 29,-16l-5 50z"/>
  </g>
 </g>
</svg>
